# xmcd
#
# Track frame offsets:
#	150
#	23395
#	41486
#	58631
#	79258
#	95745
#	111294
#	125395
#	138942
#	154654
#	173255
#	187925
#	202021
#	219424
#	233148
#
# Disc length: 3364
#
# Revision: 3
# Processed by: cddbd v1.5.2PL0 Copyright (c) Steve Scherf et al.
# Submitted via: kJams Pro (development) 1.0patch45.25
#
DISCID=bd0d220f
DTITLE=Conway Twitty - CB 90068
DYEAR=1960
DGENRE=Country
TTITLE0=Conway Twitty - That's My Job
TTITLE1=Conway Twitty - Julia
TTITLE2=Conway Twitty - Crazy In Love
TTITLE3=Conway Twitty - Don't Cry Joni
TTITLE4=Conway Twitty - Play Guitar Play
TTITLE5=Conway Twitty - Georgia Keeps Pullin' On My Ring
TTITLE6=Conway Twitty - Happy Birthday Darlin'
TTITLE7=Conway Twitty - I Couldn't See You Leaving
TTITLE8=Conway Twitty - I Wish I Was Still In Your Dreams
TTITLE9=Conway Twitty - Somebody's Needin' Somebody
TTITLE10=Conway Twitty - There's A Honky Tonk Angel Who'll Take Me Back In
TTITLE11=Conway Twitty - I See The Want In Your Eyes
TTITLE12=Conway Twitty - I Want To Know You Before We Make Love
TTITLE13=Conway Twitty - I May Never Get To Heaven
TTITLE14=Conway Twitty - The Clown
EXTD=Chartbusters MediaType: Karaoke CD+G Producer: chartbuster
EXTT0=
EXTT1=
EXTT2=
EXTT3=
EXTT4=
EXTT5=
EXTT6=
EXTT7=
EXTT8=
EXTT9=
EXTT10=
EXTT11=
EXTT12=
EXTT13=
EXTT14=
PLAYORDER=
